<svg width="171" height="167" viewBox="0 0 171 167" fill="none" xmlns="http://www.w3.org/2000/svg">
<path d="M88.1539 154.819L76.638 142.696C75.7037 143.495 73.5235 145.463 72.4573 146.13C67.8086 149.252 62.2295 150.684 56.6521 150.187C51.0747 149.69 45.8367 147.294 41.8133 143.399C37.7898 139.505 35.2246 134.348 34.5461 128.789C33.8676 123.231 35.117 117.608 38.0854 112.86V112.84L43.5838 104.427L60.9734 77.8576C63.3953 74.151 64.2457 69.6342 63.3373 65.3007C62.429 60.9672 59.8364 57.172 56.1299 54.75V54.75L24.062 103.788L23.7186 104.395C23.1755 105.29 22.6524 106.192 22.1773 107.122C19.4551 112.429 17.9227 118.266 17.6869 124.226C17.451 130.185 18.5174 136.125 20.8116 141.63C28.2506 159.643 47.7286 170.06 66.8312 166.199C72.266 165.108 77.426 162.935 82.0046 159.81C83.5859 158.712 85.6423 156.971 88.1539 154.819Z" fill="#F8B9B6"/>
<path d="M22.6402 110.833L30.6262 96.135C29.596 95.4841 27.0325 94.0267 26.0702 93.2161C21.6573 89.7619 18.5647 84.8969 17.3101 79.4351C16.0554 73.9734 16.7148 68.2464 19.1778 63.2127C21.6409 58.179 25.7582 54.144 30.8406 51.7831C35.923 49.4222 41.6621 48.8786 47.0974 50.2432H47.1214L56.8244 52.8707L87.4428 61.1721C91.717 62.3303 96.2762 61.7433 100.118 59.5403C103.959 57.3373 106.768 53.6986 107.927 49.4247V49.4247L51.3659 34.1075L50.6831 33.9717C49.6689 33.7281 48.6467 33.5125 47.6125 33.3448C41.724 32.396 35.6996 32.7423 29.9586 34.3594C24.2176 35.9765 18.8981 38.8257 14.3706 42.7084C-0.459447 55.3503 -4.34863 77.0963 5.22662 94.0706C7.93869 98.9028 11.5941 103.141 15.9758 106.533C17.5251 107.691 19.8171 109.108 22.6402 110.833Z" fill="#F8B9B6"/>
<path d="M44.2305 34.9294L60.6737 37.968C60.9692 36.7901 61.5641 33.9032 62.0393 32.7332C63.9634 27.4715 67.6357 23.0298 72.442 20.1511C77.2484 17.2723 82.8974 16.131 88.4443 16.9179C93.9913 17.7049 99.0999 20.3724 102.916 24.4744C106.732 28.5764 109.024 33.8642 109.408 39.4535V39.4814L109.904 49.5198L111.473 81.2044C111.693 85.6266 113.66 89.7803 116.942 92.7522C120.224 95.7241 124.552 97.271 128.974 97.0527V97.0527L126.059 38.543L125.98 37.8522C125.896 36.8101 125.788 35.7719 125.624 34.7377C124.709 28.845 122.52 23.2227 119.21 18.2623C115.899 13.302 111.548 9.12281 106.458 6.01592C89.8507 -4.18225 67.969 -1.17151 54.784 13.2034C51.0249 17.2757 48.123 22.0624 46.2509 27.2787C45.64 29.0956 45.0011 31.711 44.2305 34.9294Z" fill="#F8B9B6"/>
<path d="M123.089 32.0055L125.281 48.5726C126.479 48.4927 129.421 48.1733 130.679 48.2571C136.276 48.462 141.633 50.5821 145.855 54.2628C150.076 57.9435 152.906 62.9618 153.872 68.4787C154.837 73.9957 153.88 79.6768 151.159 84.5724C148.438 89.468 144.12 93.2813 138.925 95.3747H138.905L129.509 98.9685L99.8571 110.253C97.8061 111.033 95.929 112.21 94.3331 113.716C92.7372 115.222 91.4539 117.028 90.5564 119.031C89.659 121.034 89.1651 123.193 89.1029 125.387C89.0407 127.581 89.4115 129.765 90.194 131.815V131.815L144.946 110.967L145.577 110.676C146.544 110.277 147.498 109.849 148.428 109.374C153.751 106.682 158.422 102.862 162.116 98.1792C165.811 93.4966 168.439 88.0645 169.819 82.2617C174.387 63.3188 164.752 43.4415 147.027 35.3357C141.991 33.0202 136.542 31.7397 131.003 31.5703C129.074 31.5464 126.387 31.746 123.089 32.0055Z" fill="#F8B9B6"/>
<path d="M150.237 106.105L135.148 113.293C135.599 114.423 136.813 117.106 137.116 118.332C138.655 123.72 138.297 129.473 136.102 134.629C133.906 139.785 130.007 144.03 125.056 146.654C120.104 149.278 114.402 150.123 108.903 149.045C103.404 147.968 98.4414 145.035 94.8463 140.737V140.717L88.5253 132.906L68.6281 108.194C65.8494 104.749 61.8166 102.548 57.4162 102.076C53.0157 101.603 48.6078 102.898 45.1611 105.674L81.8969 151.306L82.3681 151.821C83.0469 152.62 83.7457 153.39 84.4844 154.129C88.6888 158.361 93.7653 161.624 99.3602 163.693C104.955 165.762 110.934 166.586 116.88 166.108C136.31 164.599 152.238 149.29 154.47 129.931C155.116 124.427 154.649 118.849 153.096 113.528C152.525 111.663 151.503 109.164 150.237 106.105Z" fill="#F8B9B6"/>
</svg>
