<?xml version="1.0" standalone="no"?>
<!DOCTYPE svg PUBLIC "-//W3C//DTD SVG 20010904//EN"
 "http://www.w3.org/TR/2001/REC-SVG-20010904/DTD/svg10.dtd">
<svg version="1.0" xmlns="http://www.w3.org/2000/svg"
 width="56.000000pt" height="56.000000pt" viewBox="0 0 56.000000 56.000000"
 preserveAspectRatio="xMidYMid meet">
<metadata>
Created by potrace 1.16, written by Peter Selinger 2001-2019
</metadata>
<g transform="translate(0.000000,56.000000) scale(0.014000,-0.014000)"
fill="#000000" stroke="none">
<path d="M0 2000 l0 -2000 2000 0 2000 0 0 2000 0 2000 -2000 0 -2000 0 0
-2000z m2881 972 c39 -20 62 -41 84 -77 l30 -48 0 -847 0 -847 -30 -48 c-22
-36 -45 -57 -84 -77 l-53 -28 -828 0 -828 0 -53 28 c-39 20 -62 41 -84 77
l-30 48 0 847 0 847 30 48 c22 36 45 57 84 77 l53 28 828 0 828 0 53 -28z"/>
<path d="M1820 2365 l0 -185 180 0 180 0 0 -180 0 -180 185 0 185 0 0 365 0
365 -365 0 -365 0 0 -185z"/>
<path d="M1450 1635 l0 -185 185 0 185 0 0 185 0 185 -185 0 -185 0 0 -185z"/>
</g>
</svg>
